<svg xmlns="http://www.w3.org/2000/svg" viewBox="0 0 256 256">
  <defs>
    <linearGradient id="grad1" x1="0%" y1="0%" x2="100%" y2="100%">
      <stop offset="0%" style="stop-color:#8B5CF6;stop-opacity:1" />
      <stop offset="100%" style="stop-color:#14B8A6;stop-opacity:1" />
    </linearGradient>
  </defs>
  <rect width="256" height="256" fill="#ffffff" opacity="0"/>
  <path d="M128 40 L128 100 L168 100 L168 140 L128 140 L128 200 L88 200 L88 140 L48 140 L48 100 L88 100 L88 40 Z" fill="url(#grad1)"/>
  <circle cx="190" cy="66" r="28" fill="#14B8A6"/>
  <path d="M190 50 L175 70 L185 70 L185 85 L195 85 L195 70 L205 70 Z" fill="#ffffff"/>
  <path d="M185 85 L175 105 L180 105 L180 95 L200 95 L200 105 L205 105 L195 85 Z" fill="#ffffff"/>
</svg>